<?xml version="1.0" encoding="utf-8"?>
<!-- Generator: Adobe Illustrator 25.1.0, SVG Export Plug-In . SVG Version: 6.00 Build 0)  -->
<svg version="1.1" id="Layer_1" xmlns="http://www.w3.org/2000/svg" xmlns:xlink="http://www.w3.org/1999/xlink" x="0px" y="0px"
	 width="240px" height="108.7px" viewBox="0 0 240 108.7" style="enable-background:new 0 0 240 108.7;" xml:space="preserve">
<style type="text/css">
	.st0{fill:#8A1538;}
	.st1{fill-rule:evenodd;clip-rule:evenodd;fill:#8A1538;}
</style>
<g>
	<g>
		<g>
			<g>
				<g>
					<path class="st0" d="M175.7,68.8c0-3.6-2.5-5.7-6.9-5.7c-2.5,0-4.3,0.5-5.3,1c-0.6,0.9-0.9,1.9-1.3,3.5
						c1.7-0.7,3.3-1.2,5.7-1.2c2,0,3.5,0.8,3.5,3.1c0,2.5-1.5,4.3-9.9,9.1c0,0.5,0,1.6,0.3,2.9h13.8c0.4-1.2,0.7-2.2,0.8-3.4h-11.8
						C170.4,76.2,175.7,74.1,175.7,68.8z M210.9,68.8c0-3.6-2.5-5.7-6.9-5.7c-2.5,0-4.3,0.5-5.3,1c-0.6,0.9-0.9,1.9-1.3,3.5
						c1.7-0.7,3.3-1.2,5.7-1.2c2,0,3.5,0.8,3.5,3.1c0,2.5-1.5,4.3-9.9,9.1c0,0.5,0,1.6,0.3,2.9h13.8c0.4-1.2,0.7-2.2,0.8-3.4h-11.8
						C205.6,76.2,210.9,74.1,210.9,68.8z M186.9,70.2c-0.9,0.7-1.7,1.4-2.4,2.3c0.7,0.9,1.5,1.6,2.4,2.3c0.9-0.7,1.7-1.4,2.4-2.3
						C188.6,71.6,187.8,70.9,186.9,70.2z M186.9,63.1c-5.2,0-9.1,3.1-9.1,8.2c0,6.6,6.4,10.6,9.1,10.6c2.7,0,9.1-3.9,9.1-10.6
						C196,66.2,192.1,63.1,186.9,63.1z M186.9,80.3c-1.2,0-4.8-2.4-4.8-8.7c0-3.1,1.8-5.1,4.8-5.1c3,0,4.8,2,4.8,5.1
						C191.7,77.9,188,80.3,186.9,80.3z M89.2,81.9l-6.9-3.7c3.9-1.4,6.7-4.2,6.7-8.1c0-5.3-4-8-9.1-8c-4.7,0-9.3,3-9.3,8.9
						c0,4.9,3.8,7.9,7.9,10l13.2,6.9C91.8,84.8,91.5,83.1,89.2,81.9z M81.2,77.6L81,77.5c-2.5-1.3-5.9-3.4-5.9-7.1
						c0-3.4,2.2-5,4.8-5c2.9,0,4.7,2.1,4.7,5.7C84.7,73.6,83.3,75.8,81.2,77.6z M227,68.8c0-3.6-2.5-5.7-6.9-5.7
						c-2.5,0-4.3,0.5-5.3,1c-0.6,0.9-0.9,1.9-1.3,3.5c1.7-0.7,3.3-1.2,5.7-1.2c2,0,3.5,0.8,3.5,3.1c0,2.5-1.5,4.3-9.9,9.1
						c0,0.5,0,1.6,0.3,2.9h13.8c0.4-1.2,0.7-2.2,0.8-3.4h-11.8C221.8,76.2,227,74.1,227,68.8z M91.1,75.5c0,4.3,1.6,6.4,3.7,6.4
						c2.6,0,4.6-2.3,6.5-7.1v6.8h4.2V67.3c-1.9-0.2-3.6-0.3-5.5-0.3C94.8,67,91.1,69.1,91.1,75.5z M96.9,78.2
						c-1.1,0-1.6-1.5-1.6-5.5c0-2.1,1-2.6,3.9-2.6c0.8,0,1.4,0,1.9,0C100.3,73,99.1,78.2,96.9,78.2z M154.4,73.9v-1.4
						c0-1.8-0.1-3.4-0.4-5.2h-4c0.1,1.8,0.3,3.4,0.3,5.2v9.1h4.2c0-5.1,1.6-10.9,6-10.3c0-0.9-0.1-3-0.4-4.3
						C156.8,67.3,155.3,70.1,154.4,73.9z M132.5,75.5c0,1.1,0.1,2,0.3,2.7h-15.3c-2,0-3.3-0.5-3.3-2.3v-5.2h4.8
						c0.4-1.2,0.7-2.2,0.8-3.4h-5.6c0-1.6,0.1-3,0.3-4.7c-1.8,0.7-3.3,1.4-4.4,2.7v2h-2.5c-0.2,1.4-0.2,2.5-0.3,3.4h2.7v5.5
						c0,3.8,2.3,5.5,5.5,5.5h20.8c2.5,0,4.5-2.1,6.4-6.8v6.8h4.2V67.3c-1.9-0.2-3.6-0.3-5.5-0.3C136.2,67,132.5,69.1,132.5,75.5z
						 M138.4,78.2c-1.1,0-1.6-1.5-1.6-5.5c0-2.1,1-2.6,3.9-2.6c0.8,0,1.4,0,1.9,0C141.7,73,140.5,78.2,138.4,78.2z"/>
					<g>
						<g>
							<path class="st0" d="M211.2,57c-0.6,0.1-1.2,0.3-1.9,0.4c-0.7,0.1-1.6,0.2-2.6,0.2c-1,0-2.1-0.1-3.1-0.4
								c-1.1-0.3-2-0.7-2.9-1.4c-0.8-0.6-1.5-1.4-2.1-2.4c-0.5-1-0.8-2.2-0.8-3.7c0-1.3,0.2-2.5,0.7-3.5c0.4-1,1.1-1.9,1.8-2.5
								c0.8-0.7,1.7-1.2,2.8-1.5c1.1-0.3,2.3-0.5,3.5-0.5c0.8,0,1.6,0.1,2.3,0.2c0.8,0.2,1.5,0.3,2.3,0.6l-0.3,3.3
								c-0.7-0.4-1.3-0.6-2-0.8c-0.7-0.2-1.3-0.3-2-0.3c-0.7,0-1.4,0.1-2,0.4c-0.6,0.3-1.1,0.6-1.5,1c-0.4,0.4-0.7,1-1,1.6
								c-0.2,0.6-0.3,1.3-0.3,2c0,0.8,0.1,1.4,0.4,2c0.3,0.6,0.6,1.1,1.1,1.5c0.5,0.4,1,0.7,1.6,1c0.6,0.2,1.3,0.3,2.1,0.3
								c0.7,0,1.4-0.1,2-0.2c0.7-0.2,1.3-0.3,1.8-0.6L211.2,57z"/>
							<path class="st0" d="M226.1,51.4c0,1.1-0.2,2-0.5,2.7c-0.3,0.8-0.8,1.4-1.4,1.9c-0.6,0.5-1.3,0.9-2.1,1.1
								c-0.8,0.2-1.8,0.4-2.8,0.4c-1,0-1.9-0.1-2.8-0.4c-0.8-0.2-1.6-0.6-2.1-1.1c-0.6-0.5-1.1-1.1-1.4-1.9
								c-0.3-0.8-0.5-1.7-0.5-2.7v-9.6h4.1v8.9c0,0.5,0,1,0.1,1.5c0.1,0.5,0.2,0.8,0.4,1.2c0.2,0.3,0.5,0.6,0.8,0.8
								c0.3,0.2,0.8,0.3,1.3,0.3c0.5,0,1-0.1,1.3-0.3c0.3-0.2,0.6-0.5,0.8-0.8c0.2-0.3,0.3-0.7,0.4-1.2c0.1-0.5,0.1-0.9,0.1-1.5
								v-8.9h4.1V51.4z"/>
							<path class="st0" d="M228.1,41.8h4.9c2.4,0,4.1,0.4,5.3,1.2c1.1,0.8,1.7,2.1,1.7,3.8c0,1.6-0.5,2.8-1.6,3.7
								c-1.1,0.9-2.6,1.3-4.5,1.3h-1.6v5.4h-4.1V41.8z M232.3,49h1.1c0.4,0,0.7,0,1-0.1c0.3-0.1,0.6-0.2,0.8-0.4
								c0.2-0.2,0.4-0.4,0.5-0.7c0.1-0.3,0.2-0.6,0.2-1c0-0.4-0.1-0.7-0.2-1c-0.1-0.3-0.3-0.5-0.5-0.6c-0.2-0.2-0.5-0.3-0.8-0.3
								c-0.3-0.1-0.6-0.1-1-0.1h-1.1V49z"/>
						</g>
						<g>
							<path class="st0" d="M111.8,41.8h4.2l2,11.9h0l2.1-11.9h5.2l2.2,11.9h0l2-11.9h4l-3.5,15.5h-5.3l-2.2-11.9h0l-2,11.9h-5.3
								L111.8,41.8z"/>
							<path class="st0" d="M133.8,49.6c0-1.2,0.2-2.4,0.5-3.3c0.3-1,0.8-1.8,1.5-2.5c0.7-0.7,1.5-1.2,2.4-1.6
								c1-0.4,2.1-0.6,3.4-0.6c1.3,0,2.4,0.2,3.4,0.6c1,0.4,1.8,0.9,2.4,1.6c0.6,0.7,1.1,1.5,1.5,2.5c0.3,1,0.5,2.1,0.5,3.3
								c0,1.2-0.2,2.3-0.5,3.3c-0.3,1-0.8,1.8-1.5,2.5c-0.7,0.7-1.5,1.2-2.4,1.6c-1,0.4-2.1,0.6-3.3,0.6c-1.3,0-2.4-0.2-3.3-0.6
								c-1-0.4-1.8-0.9-2.4-1.6c-0.7-0.7-1.2-1.5-1.5-2.5C134,51.9,133.8,50.8,133.8,49.6z M138,49.6c0,0.6,0.1,1.3,0.2,1.8
								c0.1,0.6,0.3,1.1,0.6,1.6c0.3,0.5,0.6,0.8,1.1,1.1c0.4,0.3,1,0.4,1.6,0.4c0.6,0,1.2-0.1,1.6-0.4c0.4-0.3,0.8-0.6,1.1-1.1
								c0.3-0.5,0.5-1,0.6-1.6c0.1-0.6,0.2-1.2,0.2-1.8c0-0.7-0.1-1.3-0.2-1.9c-0.1-0.6-0.3-1.1-0.6-1.6c-0.3-0.5-0.6-0.8-1.1-1.1
								c-0.4-0.3-1-0.4-1.6-0.4c-0.6,0-1.2,0.1-1.6,0.4c-0.4,0.3-0.8,0.6-1.1,1.1c-0.3,0.5-0.5,1-0.6,1.6
								C138.1,48.3,138,48.9,138,49.6z"/>
							<path class="st0" d="M150.9,41.8h7.4c0.7,0,1.3,0.1,1.9,0.2c0.6,0.2,1.1,0.4,1.6,0.7c0.5,0.3,0.8,0.7,1.1,1.2
								c0.3,0.5,0.4,1.1,0.4,1.7c0,1-0.2,1.9-0.7,2.5c-0.5,0.7-1.2,1.1-2.2,1.4v0c0.3,0.1,0.6,0.2,0.8,0.4c0.2,0.2,0.4,0.4,0.5,0.7
								c0.1,0.3,0.3,0.6,0.4,1c0.1,0.4,0.3,0.8,0.5,1.3l1.5,4.2h-4.3l-0.9-2.8c-0.2-0.7-0.4-1.2-0.6-1.6c-0.2-0.4-0.4-0.8-0.6-1
								c-0.2-0.3-0.5-0.4-0.7-0.5c-0.3-0.1-0.6-0.1-1-0.1H155v6.1h-4.1V41.8z M155,48.3h1.1c0.3,0,0.7,0,1,0c0.4,0,0.7-0.1,1-0.2
								c0.3-0.1,0.5-0.3,0.7-0.5c0.2-0.2,0.3-0.6,0.3-1c0-0.4-0.1-0.6-0.3-0.9c-0.2-0.2-0.4-0.4-0.7-0.5c-0.3-0.1-0.6-0.2-1-0.2
								c-0.4,0-0.7-0.1-1.1-0.1H155V48.3z"/>
							<path class="st0" d="M165.7,41.8h4.1v12.4h6.4v3.1h-10.5V41.8z"/>
							<path class="st0" d="M177.6,41.8h5.6c1.3,0,2.6,0.1,3.7,0.4c1.1,0.2,2.1,0.6,2.9,1.2c0.8,0.6,1.4,1.4,1.9,2.4
								c0.5,1,0.7,2.2,0.7,3.7c0,1.4-0.2,2.7-0.7,3.7c-0.5,1-1.1,1.8-1.9,2.4c-0.8,0.6-1.8,1.1-2.9,1.3c-1.1,0.3-2.3,0.4-3.7,0.4
								h-5.6V41.8z M181.8,54.2h1.6c1.6,0,2.7-0.4,3.6-1.2c0.8-0.8,1.2-1.9,1.2-3.5c0-1.6-0.4-2.7-1.3-3.5c-0.8-0.8-2-1.2-3.5-1.2
								h-1.6V54.2z"/>
						</g>
						<g>
							<polygon class="st1" points="62,41.8 62,57.3 66.8,57.3 66.8,51.7 70.2,51.7 71.5,48.3 66.8,48.3 66.8,45.2 72.6,45.2 
								73.8,41.8 							"/>
							<rect x="75.3" y="41.8" class="st1" width="4.8" height="15.5"/>
							<polygon class="st1" points="83.4,41.8 83.4,57.3 88.2,57.3 88.2,51.7 91.7,51.7 92.9,48.3 88.2,48.3 88.2,45.2 94.1,45.2 
								95.3,41.8 							"/>
							<path class="st1" d="M109.1,57.3h-4.9l-0.6-2.1h-5.4l-0.6,2.1h-4.7l5.6-15.5h5L109.1,57.3z M102.8,52.3l-1.9-6.4L99,52.3
								H102.8z"/>
						</g>
					</g>
				</g>
			</g>
		</g>
		<path class="st0" d="M5.3,19c0.1,0.1,0.3,0.1,0.4,0.1c0.6,0,1-0.5,1-1c0-0.2-0.1-0.4-0.1-0.5C6,17.9,5.5,18.4,5.3,19z M9,20.8
			l0.2-1.1c0-0.1,0-0.2-0.2-0.3l-1-0.5c-0.1-0.1-0.2,0-0.3,0.1l-0.8,0.8c-0.1,0.1-0.1,0.2,0,0.3l0.5,1c0.1,0.1,0.2,0.2,0.3,0.1
			L8.7,21C8.8,21,8.9,20.9,9,20.8z M5.4,20.7c-0.1,0-0.2,0-0.3,0c0.2,0.7,0.5,1.2,1.1,1.6c0.1-0.2,0.2-0.4,0.2-0.6
			C6.5,21.1,6,20.7,5.4,20.7z M50.6,25.3c0-1.5,0-3.9-1-7.4c-1.1-3.9-3.6-8-3.6-8c0-0.1-0.1-0.2-0.1-0.2c-0.6-0.8-1.3-1.5-2-2
			C43,7.1,42,6.9,41.2,7c-0.9,0.1-1.3,0.3-1.8,0.6c-0.4,0.2-1.1,0.8-2.2,1c-0.7,0.1-1.4,0-2.1-0.2c-1.4-0.4-2.7-1.1-3.9-1.7
			c-2.5-1.4-4.8-3-7.4-3.9c-0.3-0.1-1.3-0.5-3.1-0.1C19,3,17.2,4,16,4.7c-1.2,0.7-2.3,1.6-3.4,2.5c-1.1,0.9-2.1,1.9-3,3
			c1.6-2.4,3.7-4.3,6.1-5.9c0.6-0.4,2.5-1.7,4.8-2.2c1.9-0.5,3.2,0.1,3.3,0.1c1.6,0.6,3.2,1.4,4.6,2.3c6.2,3,11.5-4.3,17.4,5.2
			c-3.8-7-4-5.6-6.4-6.1c-0.1,0-0.2,0-0.3-0.1c-2.8-0.6-7.6-2.5-10-3.3c-0.5-0.2-1-0.2-1.7-0.2c-3,0-7.9,1.3-11.2,1.7
			c-1.1,0.1-1.9,0.3-2.5,0.5c-1.9,0.7-2.4,2-3.2,3C10.2,5.8,9.8,6,9.4,6.1c0,0,0,0,0,0C6.2,7.3-1.4,16.6,0.2,29.6
			c0.1,1.3,0.4,2.5,0.7,3.7c3.1,12.4,13.6,29,16.2,33.8c-1.9,4.4-6,13.4-7.3,21.8c-0.1,0.3-0.4,2.2-0.4,3.9c0,0,0,0,0,0
			c-0.2,4.3,0.6,8.2,3.1,11.1c0,0,1.6,2.1,4.8,3.1c0,0,0,0,0,0c2.1,0.9,3.8,0.4,5.3,0.1c0.7,0.4,1.4,0.8,2.2,1
			c0.2,0.1,0.3,0.1,0.5,0.2c0.9-0.7,1.8-1.5,2.5-2.4c-0.1-0.1-0.6-0.5-0.6-1.1c0-0.4,0.2-0.8,0.6-1.1c0.4-0.3,0.7-0.5,1.1-0.8
			c0.2-0.2,0.4-0.6,0.3-0.8c0-0.3-0.2-0.4-0.5-0.4c-0.1,0-0.3,0.1-0.4,0.1c0.1-0.2,0.4-0.6,0.7-0.7c0.4-0.2,0.8-0.2,1,0
			c0.3,0.2,0.4,0.5,0.2,0.9c-0.1,0.3-0.3,0.7-0.6,1c-0.1,0.1-0.2,0.2-0.2,0.3c-0.2,0.3-0.5,0.7-0.5,1.1c0.1-0.1,0.1-0.1,0.2-0.2
			c0.6-0.6,1.2-1.2,1.7-1.8c0,0,0.1-0.1,0.1-0.1c0,0.1,0,0.1,0,0.2c-0.1,0.4-0.3,0.8-0.4,1.2c-0.2,0.4-0.4,0.9-0.7,1.3
			c0.3-0.2,0.6-0.6,1.1-1.2c0.1-0.3,0.3-0.6,0.5-0.9c0.1-0.2,0.3-0.4,0.5-0.5c0.4-0.3,0.8-0.3,1-0.1c0.2,0.2,0.3,0.5,0.2,0.9
			c-0.1,0.2-0.1,0.5-0.3,0.7c0-0.1,0-0.1,0-0.2c0-0.4-0.2-0.5-0.5-0.4c-0.3,0.1-0.6,0.5-0.8,0.9c-0.1,0.3-0.2,0.6-0.3,0.9
			c-0.2,0.4-0.3,0.8-0.7,1.1c-0.6,0.5-1.4,0.4-2.1,0.1c-0.8,0.8-1.5,1.6-2.4,2.2c0.3,0.1,0.5,0.1,0.8,0.2c0.2-0.2,0.5-0.4,0.7-0.7
			c0.6-0.7,1.4-0.9,2.3-1c-0.2,0.2-0.3,0.3-0.4,0.5c-0.1,0.2-0.3,0.4-0.4,0.5c-0.2,0.2-0.4,0.5-0.7,0.7c0,0-0.1,0.1-0.2,0.1
			c0.2,0,0.4,0,0.6,0c0.7-0.9,1.9-1.9,2.9-2.2c0.7-0.2,1.3,0.2,1.8,0.1c0.4-0.1,0.8-0.1,1.2-0.3c0.5-0.2,0.8-0.6,1.1-1.2
			c0.2-0.5,0.1-0.8-0.1-0.9c-0.3-0.2-0.9,0-1.2,0.6c-0.1,0.2,0,0.6,0.1,0.7c0.1,0.1,0.2,0,0.5-0.2c0,0,0,0,0.1-0.1
			c0,0.1,0,0.1,0,0.2c-0.1,0.2-0.2,0.4-0.5,0.6c-0.3,0.1-0.4,0-0.6-0.1c-0.7-0.4-0.2-1.5,0.1-1.9c0.5-0.6,1.6-0.3,1.9-0.2
			c0,0,0.1,0,0.1,0.1c0.2-0.3,0.3-0.5,0.5-0.8c0.1,0.2,0.1,0.4,0,0.7c-0.1,0.3-0.2,0.6-0.4,0.9c0.2-0.1,0.4-0.3,0.7-0.4
			c-0.1,0.8-0.6,1.4-1.1,1.9c0.1,0,0.3,0.1,0.4,0.1c-0.4,0.7-0.9,1-1.3,1.1c-0.3,0.1-0.7,0-1,0c-0.5,0-1-0.1-1.6-0.2
			c-0.7,0-1.5,0.3-2.3,0.9c-0.3,0.2-0.5,0.4-0.7,0.7c0.1,0,0.1,0,0.2,0c0.2,0,0.4,0,0.5,0c0.9-0.5,1.7-0.8,2.6-0.9
			c0.5,0,0.9,0.1,1.2,0.3c0,0,0,0,0,0c1.2-0.3,2.2-0.7,3-1.2c3.2-1,4.6-2.9,5.5-5.8c0.7-2.2,1.7-6.1,0.6-11.7c0,0,0,0,0,0
			c-0.1,0.1-0.2,0.2-0.3,0.3c-0.3,0.1-0.6,0-0.8-0.2c-0.2-0.3-0.4-0.6-0.6-1c0.5,0,0.8,0.1,1.1,0.3c0.1,0.1,0.3,0.2,0.6,0.2
			c0,0,0,0,0,0c-0.1-0.4-0.2-0.8-0.3-1.3c0,0,0,0,0,0c-0.2-0.1-0.3-0.3-0.5-0.4c-0.2,0.3-0.4,0.7-0.8,0.8c-0.1-0.7-0.4-1.3-1.1-1.4
			c0-0.1,0.1-0.1,0.1-0.1c0.6-0.2,1.1-0.4,1.7-0.3c0,0,0,0,0,0c-0.1-0.4-0.3-0.8-0.4-1.2c0,0,0,0,0,0c-0.5,0.1-0.9,0.3-1.4,0.4
			c0.2-0.4,0.6-0.9,1-1.3c0,0,0,0,0,0c-1.1-2.5-2.8-6-5.2-10.5c-0.1,0-0.2,0-0.2-0.1c-0.5-0.1-0.8,0-0.8,0.5c0,0.5,0.3,1.1,0.8,1.4
			c0.4,0.3,0.7,0.6,1.1,0.9c0.5,0.4,0.9,0.9,1.1,1.5c0.3,1.1,0,1.8-0.4,2.4c0-0.1,0.1-1.3-0.8-2.3c-0.4-0.4-0.7-0.8-1.1-1.2
			c-0.6-0.6-1.3-1.2-1.8-1.9c-0.1-0.2-0.3-0.4-0.4-0.6c-0.4-0.8-0.2-1.5,0.2-1.7c0.3-0.2,0.8-0.2,1.3,0.2c0.3,0.2,0.7,0.4,0.9,0.8
			c-1-1.8-2-3.8-3.2-6l0,0c3.5-6.7,13-23.2,14.6-28C47.6,39.3,50.6,32.2,50.6,25.3z M10,11.9l0.9,1.6l-1.6,0.9l-0.9-1.6L10,11.9z
			 M7.5,28.4l-1.3-1.3l1.3-1.3l1.3,1.3L7.5,28.4z M7.9,24.1c-2.2,0-4-1.8-4-4s1.8-4,4-4c2.2,0,4,1.8,4,4S10.2,24.1,7.9,24.1z
			 M41.3,89.5c0.2,0.2,0.5,0.3,0.7,0.5c0.2,0.2,0.4,0.5,0.8,0.4c-0.3,0.5-0.7,0.7-1,0.6C41.4,90.8,41.1,90.1,41.3,89.5z M41.1,90.8
			c0.3,0.3,0.7,0.5,0.7,1c0,0.2,0,0.3-0.2,0.4c-0.2,0.1-0.3,0.1-0.4,0C41,91.7,41,91.3,41.1,90.8z M15.6,36.6
			c-0.7-2.2-1.3-4.3-1.6-6.3v0c0,0,0,0,0,0c0,0,0,0,0,0c-1.2-5.8-0.7-9.2,1.5-14c0-0.1,0.1-0.2,0.1-0.3c1-0.6,4.5-2.2,9.2-1
			c4.3,1.1,6.5,4,7.5,7c2.6,7.2-2.9,21.2-7.8,31.4C21,47.5,17.7,41.9,15.6,36.6z M28.6,71.2c-0.3-0.4-0.6-0.8-0.6-1.1
			c0-0.1,0.1-0.2,0.2-0.2c0.3,0,0.7,0.1,1.1,0.5c0.4,0.3,0.8,0.7,1.1,1c-0.1-0.1-0.1-0.2-0.2-0.3c-0.4-0.6-1-1-1.6-1.3
			c-0.3-0.2-0.6-0.4-0.8-0.7c-0.1-0.1,0-0.3,0-0.3c0.1-0.1,0.5,0,0.8,0.4c0.3,0.3,0.5,0.6,0.8,0.9c0.3,0,0.6,0.1,0.9,0.5
			c0.2,0.3,0.4,0.6,0.5,0.9c0.1,0.2,0.1,0.2,0.3,0.3c0.2,0.1,0.3,0.3,0.4,0.5c0.3,0.5,0.2,1.1,0,1.4c-0.1,0.2-0.3,0.3-0.5,0.3
			c-0.2,0-0.5,0-0.8-0.1c-0.3-0.1-0.5-0.3-0.6-0.7c0-0.1-0.1-0.2-0.2-0.2c-0.3-0.2-0.5-0.3-0.8-0.5c-0.5-0.3-0.6-0.6-0.6-0.9
			c-0.3-0.2-0.6-0.4-0.9-0.7c-0.3-0.3-0.5-0.6-0.4-0.8c0.3-0.5,1.1,0.5,1.2,0.7c0.3,0.5,0.8,1,1.2,1.4c0.1,0.1,0.1,0.1,0.2,0.2
			C29.2,71.9,28.9,71.5,28.6,71.2z M29.4,69.3c-0.4-0.5-0.8-1.1-0.9-1.5c0-0.2,0.1-0.4,0.3-0.3c0.1,0,0.3,0.2,0.4,0.3
			c0.2,0.3,0.2,0.6,0.2,0.6C29.3,68.7,29.2,68.9,29.4,69.3z M34.8,81.7c-0.6-0.1-1-0.6-1.3-1.3c-0.2-0.6-0.4-1.3-0.7-1.9
			c-0.2-0.4-0.6-0.8-0.9-0.8c-0.4-0.1-0.6,0.1-0.7,0.5c0,0.2,0,0.4,0,0.6c-0.3-0.2-0.6-0.9-0.7-1.3c-0.1-0.7,0.1-1.1,0.5-1.4
			c0.4-0.3,0.8-0.3,1.4,0.1c0.4,0.3,0.8,0.8,1.1,1.3c0.4,0.7,0.8,1.5,1.1,2.3c0.3,0.6,0.6,1.2,1.1,1.5c0.2,0.1,0.3,0.2,0.5,0.3
			C35.8,81.7,35.3,81.8,34.8,81.7z M37.9,84c0.2,0.5,0.4,0.9,0.5,1.4c-0.1,0.1-0.3,0.1-0.5,0.2c-0.6,0.2-1.2,0-1.4-0.6
			c-0.3-0.9-0.6-1.8-1.1-2.8c0.3,0,0.5,0,0.6,0.1C36.9,82.4,37.6,82.9,37.9,84z M30,79.1c0.5,0.3,1.2,0.8,1.5,1.4
			c0.3,0.8-0.4,1.6-1.1,1.7C31.2,81.1,30.9,80.1,30,79.1z M27.1,74.3c0.2,0.4,0.5,0.6,0.8,0.5c0.2,0,0.3-0.2,0.2-0.4
			c0-0.2-0.2-0.4-0.3-0.4C27.8,74,27.6,74,27.5,74c0-0.2,0-0.3,0.2-0.3c0.3,0,0.8,0.4,0.9,0.9c0.1,0.4-0.1,0.7-0.4,0.8
			c-0.4,0.1-0.8-0.1-1-0.4c-0.1-0.2-0.3-0.3-0.4-0.4c-0.1-0.1-0.3,0-0.4,0c0,0-0.2-0.5,0.2-0.8c-0.1-0.1-0.2-0.2-0.3-0.2
			C26,73.3,26,73.2,26.1,73c0.1-0.1,0.2-0.2,0.3-0.2c0.1-0.1,0.3-0.1,0.5-0.1c-0.1-0.1-0.3-0.3-0.4-0.4c0.1,0,0.1-0.1,0.2-0.1
			c0.2-0.1,0.5,0,0.8,0.2c0.5,0.3,1,0.7,1.5,1c0.9,0.6,1.8,1.2,2.7,1c0,0.1,0,0.1,0,0.1c0,0,0,0,0,0c-0.3,0.4-0.9,0.7-1.4,0.3
			c-0.6-0.4-1.3-1.3-2-1.6c-0.4-0.2-0.7-0.2-0.9-0.1c-0.2,0.1-0.4,0.4-0.4,0.8C27,74,27.1,74.2,27.1,74.3z M25.8,71.4
			c0-0.8,1.2-0.3,1.9,0.2c-0.2,0-0.4-0.1-0.6,0c-0.2,0.1-0.3,0.2-0.5,0.3C26.5,71.9,25.8,71.9,25.8,71.4z M27,69
			c-0.1,0-0.2-0.1-0.3-0.1c0.1,0.1,0.2,0.2,0.2,0.3c0,0.2-0.3,0.4-0.7,0c-0.2-0.2-0.4-0.3-0.7-0.5c-0.1-0.2,0.1-0.5,0.3-0.5
			c-0.3-0.2-0.6-0.5-0.8-0.9c-0.2-0.4-0.3-0.6-0.3-0.9c0-0.1,0.1-0.1,0.2-0.1c0.2,0.1,0.5,0.3,0.8,0.7c0.3,0.3,0.5,0.7,0.7,1
			c0-0.2,0.3-0.5,0.5-0.4c0.1,0.2,0.1,0.3,0.2,0.5c0.1,0.2,0.2,0.3,0.3,0.5C27.4,68.9,27.2,69,27,69z M16.7,101.5
			c-3-0.5-4.2-3.6-4.4-4c-1.3-3.8-1-11.4,5.8-28.6c0.7,1.5,1.4,3,1.7,3.6c3.9,8,5,15.6,4.9,19.6C24.6,96,21.9,102.4,16.7,101.5z
			 M22.9,101.4c0.4,0.1,0.6,0.4,1,0.6c0-0.1,0-0.1,0-0.2c0.6,0.5,1,1,1.1,1.7c0.1,0.5-0.3,1.4-0.6,1.6c-0.2-1.2-0.7-2.3-2.1-3
			c0,0,0.5,0,0.8,0C23.1,101.8,23,101.7,22.9,101.4z M21.9,106.9c0.1-0.1,0.2-0.2,0.4-0.3c-0.2-0.1-0.5-0.4-0.5-0.5
			c0.3,0,0.5,0,0.8,0.1c0-0.1,0-0.1-0.1-0.2c1.3,0.2,2.5,1.2,2.6,2C24.2,107.4,23.2,106.8,21.9,106.9z M26.2,106.7
			c-0.3,0.2-0.5,0.4-0.8,0.7c-0.1-0.1-0.2-0.2-0.3-0.3c-0.3-0.3-0.3-0.8,0-1c0.5-0.4,1-0.8,1.6-1.3c0,0.2,0.1,0.3,0.1,0.4
			C27,105.7,26.8,106.2,26.2,106.7z M27.2,101.4c-0.5,0.3-1.4-0.1-1.5-0.5c0-0.3,0.3-0.6,0.5-0.6c0,0,0,0.1,0,0.1
			c-0.1,0.1-0.1,0.3,0,0.4c0.1,0.1,0.3,0.1,0.4,0c0.2-0.1,0.4-0.4,0.4-0.6c0-0.4-0.3-0.7-0.6-0.7c-0.6-0.1-1.1,0.4-1.2,0.9
			c-0.1,0.4,0.1,0.8,0.3,1.2c0.2,0.5,0.8,1.2,1,1.7c0.5,1.2-0.5,2.3-2.1,2.7c-0.2,0.1-0.6,0.2-0.7-0.1c0,0,0.1-0.2,0.1-0.2
			c0.5,0,1-0.1,1.4-0.5c0.5-0.4,0.8-0.9,0.8-1.5c0-0.6-0.4-1.1-0.8-1.5c-0.3-0.4-0.7-0.8-0.9-1.3c-0.3-0.6-0.3-1,0.1-1.5
			c0.1,0.1,0.2,0.2,0.4,0.3c0.1-0.2,0.2-0.5,0.3-0.8c0.1-0.2,0.3-0.5,0.6-0.5c0.1,0.2,0.1,0.5,0.2,0.7c0.3-0.5,0.6-0.8,1.2-0.8
			c-0.1,0.2-0.2,0.4-0.2,0.7c0,0,0.1,0,0.1,0.1c0.5,0.2,0.7,0.4,0.8,0.9C27.8,100.5,27.6,101.1,27.2,101.4z M26.5,83
			c0.2-0.1,0.4-0.2,0.6-0.3c-0.3-0.3-0.6-0.5-0.8-0.8c-0.2-0.3-0.4-0.7-0.3-1.1c0.4,0.1,0.7,0.1,1,0.2c-0.4-0.7-0.7-1.3-0.3-1.9
			c0.2,0.2,0.5,0.5,0.7,0.7c0,0,0.1-0.1,0.2-0.1c0.5-0.5,1-0.6,1.7-0.3c0.6,0.3,0.9,0.8,1,1.5c0.1,0.7-0.5,1.5-1.1,1.3
			c-0.3-0.1-0.6-0.7-0.5-1c0,0,0.1,0,0.1,0.1c0.1,0.2,0.3,0.3,0.5,0.2c0.2-0.1,0.3-0.3,0.3-0.5c0-0.4-0.3-0.8-0.6-0.9
			c-0.5-0.2-1,0-1.3,0.4c-0.5,0.7-0.2,1.7,0.4,2.1c0.5,0.4,1.1,0.4,1.7,0.4c0.7,0,1.4-0.1,2.1,0c1.8,0.1,3.2,1.6,2.8,3.8
			c-0.1,0.3-0.3,0.7-0.4,1c-0.1,0-0.2-0.2-0.2-0.2c0.3-0.7,0.4-1.3,0.2-2c-0.2-0.9-0.7-1.6-1.4-1.9c-0.8-0.3-1.6-0.1-2.4,0
			c-0.7,0.2-1.5,0.3-2.2,0.4C27.5,84.2,26.9,83.8,26.5,83z M29,87.2c0,0,0.3-0.7,0.4-1.1c-0.3,0-0.6,0-0.9,0
			c0.3-0.6,0.9-0.7,1.2-1.1c-0.1-0.1-0.2-0.1-0.3-0.2c1-0.6,1.8-0.9,2.8-0.7c0.7,0.2,1.9,1,1.9,1.5C32.3,85.5,30.7,85.6,29,87.2z
			 M35.9,99.1c-0.1,0-0.2,0-0.3,0.1c-0.1,0.1-0.1,0.3-0.1,0.4c0,0.3-0.3,0.7-0.6,0.8c-0.2,0.1-0.5-0.1-0.5-0.4
			c-0.1-0.3,0.1-0.9,0.3-1.1c0.1-0.1,0.2-0.1,0.3,0.1c-0.1,0.1-0.2,0.1-0.2,0.2c0,0.1,0,0.3,0,0.4c0,0.2,0.1,0.2,0.3,0.2
			c0.2-0.1,0.4-0.4,0.4-0.7c0-0.1,0-0.3-0.1-0.3c-0.1-0.2-0.3-0.4-0.5-0.4c-0.2,0-0.4,0.2-0.6,0.4c-0.3,0.5-0.4,1.3-0.7,1.8
			c-0.3,0.5-0.7,0.5-1.2,0.3c-0.1,0-0.6-0.1-0.8-0.1c-0.4-0.1-0.8-0.3-0.8-0.8c0-0.5,0.3-1.4,0.2-1.9c0-0.3-0.1-0.5-0.3-0.7
			c-0.2-0.1-0.4-0.1-0.7,0.1c-0.1,0-0.2,0.2-0.2,0.3c-0.1,0.3-0.1,0.6,0,0.8c0.1,0.1,0.2,0.1,0.3,0c0.1-0.1,0.2-0.3,0.2-0.4
			c0-0.1-0.1-0.2-0.1-0.3c0.2-0.1,0.2-0.1,0.3,0c0.1,0.2,0.1,0.9-0.2,1.1c-0.2,0.2-0.5,0.2-0.7,0.1c-0.2-0.2-0.3-0.7-0.2-1
			c0.1-0.2,0.1-0.3,0.1-0.4c0-0.1-0.1-0.2-0.2-0.2c0,0,0.2-0.3,0.6-0.2c0-0.1,0-0.2,0-0.3c0-0.3,0-0.3,0.2-0.3c0.1,0,0.2,0,0.2,0.1
			c0.1,0.1,0.2,0.2,0.3,0.3c0-0.1,0-0.1,0-0.2c0-0.1,0.1-0.2,0.1-0.3c0.1,0,0.1,0,0.1,0.1c0.1,0.1,0.3,0.4,0.4,0.6
			c0.1,0.3,0.3,0.6,0.4,1c0-0.1,0-0.2,0-0.2c0-0.5,0.4-0.8,0.6-1c0-0.1,0-0.3,0-0.4c0-0.2-0.1-0.3-0.1-0.5c0.2-0.1,0.5-0.1,0.6,0.1
			c0-0.4,0-0.7,0-1.1c0-0.4,0.1-0.7,0.3-0.9c0.1-0.1,0.1-0.1,0.2,0c0.1,0.2,0.2,0.4,0.2,0.8c0,0.4-0.1,0.8-0.2,1.1
			c0.2-0.1,0.5,0.1,0.5,0.2c-0.1,0.2-0.2,0.4-0.3,0.7c0,0.1,0,0.1-0.1,0.1l0.2,0.3c0.1,0.2,0.2,0.4,0,0.8c0,0.1-0.1,0.2-0.1,0.3
			c0.2-0.3,0.5-0.7,0.7-0.8c0.2-0.1,0.4-0.2,0.5-0.3c0.1,0,0.1,0,0.2,0c0,0.1,0,0.2,0,0.3c0,0,0,0.1,0,0.2c0.1,0,0.2-0.1,0.4-0.1
			c0.1,0,0.2,0,0.3,0c0.2,0,0.2,0.1,0.1,0.3c0,0.1-0.1,0.2-0.1,0.3C35.6,98.8,35.8,98.7,35.9,99.1C35.9,99.1,35.9,99.1,35.9,99.1z
			 M35.3,90.3c-0.1-0.2-0.2-0.4-0.3-0.7c-0.3,0.2-0.8,0.5-0.9,0.4c0.2-0.4,0.3-0.7,0.5-1.1c-0.1,0-0.2,0-0.3,0
			c0.9-1.7,2.9-2.8,4-2.6C37.1,87.5,35.8,88.5,35.3,90.3z M37.7,90.6c-0.4-0.4-0.4-0.8-0.2-1.4c0.2-0.6,0.6-1,1.1-1.4
			c0.2-0.2,0.4-0.3,0.6-0.5c0,0,0,0,0.1,0.1c-0.4,0.7-0.2,1.2,0.1,1.8c-0.4,0-0.7,0-1,0.1C38.5,89.7,38.2,90.1,37.7,90.6z
			 M38.9,91.3c-0.3,0-0.5,0-0.7-0.2c0.4-0.1,0.5-0.3,0.6-0.6c0.1-0.4,0.3-0.7,0.7-1.1c0.1,0.1,0.1,0.3,0.1,0.5c0,0.3,0,0.7-0.2,1
			C39.4,91.1,39.2,91.3,38.9,91.3z M40.4,91.5c-0.2,0.2-0.5,0.3-0.8,0.2c0.3-0.3,0.3-0.5,0.3-0.8c0-0.3,0-0.7,0.1-1.1
			c0.4,0.2,0.7,0.7,0.7,1.1C40.7,91.1,40.6,91.3,40.4,91.5z M38.8,79.7c0.2,0.3,0.3,0.6,0.5,0.9c0.2,0.3,0.4,0.5,0.6,0.8
			c0.2,0.4,0.5,0.8,0.6,1.2c0.3,0.8-0.2,1.6-0.8,2c-0.2-0.4-0.3-0.9-0.6-1.3C38.4,82.2,38.4,81,38.8,79.7z M34.7,76.5
			c0.8,0.7,1.5,1.4,2,2.4c0.2,0.4,0.3,0.8,0.2,1.1c-0.1,0.2,0,0.4,0.1,0.6c1.2,2,2.1,4.2,2.8,6.3c0,0.1,0.2,0.2,0.3,0.3
			c0.1,0.2,0.4,0.3,0.4,0.5c0.1,0.3,0.1,0.7,0.1,1c0,0.4,0,0.8-0.1,1.2c-0.2,0-0.7-0.7-0.9-1c-0.3-0.4-0.5-0.9-0.2-1.5
			c0-0.1,0-0.2,0-0.2c-0.7-2.1-1.6-4.3-2.8-6.4c-0.1-0.2-0.2-0.2-0.3-0.2c-0.2,0-0.5-0.1-0.6-0.3c-0.3-0.5-0.7-1-1-1.5
			c-0.5-1.1-1-2.2-1.7-3.2c0-0.1-0.1-0.1-0.1-0.3c0.1,0.1,0.2,0.1,0.2,0.2C33.8,75.8,34.3,76.1,34.7,76.5z M33,69.3
			c0.3,0.3,0.5,0.7,0.3,1c-0.1,0.3-0.4,0.4-0.8,0.3c-0.4-0.1-0.8-0.6-0.8-0.9c0-0.2,0.1-0.2,0.3-0.2c0,0.1,0,0.3,0,0.4
			c0.1,0.1,0.3,0.3,0.4,0.3c0.2,0.1,0.3,0,0.4-0.2c0.1-0.3-0.1-0.6-0.5-0.9c-0.1-0.1-0.3-0.2-0.4-0.2c-0.4,0-0.7,0.1-0.8,0.3
			c-0.1,0.3-0.1,0.6,0.1,0.9c0.3,0.6,1.2,1.4,1.5,2.1c0.3,0.6,0,1.1-0.4,1.4c0,0,0,0-0.1,0c0,0,0,0-0.1,0c0.3-0.8-0.2-1.8-0.8-2.7
			c-0.3-0.5-0.6-1-0.9-1.6c-0.2-0.3-0.2-0.6-0.1-0.8c0-0.1,0.1-0.1,0.1-0.2c0.1,0.1,0.3,0.3,0.4,0.4c0.1-0.5,0.3-0.7,0.4-0.7
			c0.2-0.2,0.2-0.1,0.4,0.2c0.1,0.1,0.1,0.2,0.2,0.3c0.2-0.1,0.4-0.4,0.8-0.3c0,0,0,0.1,0,0.1c0,0.1-0.1,0.2,0,0.4
			C32.7,69,32.9,69.2,33,69.3z M46.4,26.9C45.5,41,35.2,56.1,30.5,63.7c-1.4-2.3-2.7-4.8-4.4-7.6c9.5-22,9.3-30.4,7.8-34.5
			c-2.7-7.6-11.2-10.2-17.2-7.2c1-1.6,4-5,7.3-6.3c2.9-1.2,4.7,0.2,5.5,0.6c1.8,0.8,3.4,1.4,5.2,1.4c2,0,2.9-1.1,3.4-1.5
			c0.8,0.7,1.3,0.7,3.3,3.1C45.2,16,46.8,20.7,46.4,26.9z M8.7,22c-0.5,0-1,0.4-1,0.9c0.1,0,0.2,0,0.3,0c0.6,0,1.1-0.2,1.6-0.5
			C9.4,22.2,9.1,22,8.7,22z M9.9,20.2c0,0.4,0.3,0.8,0.7,1c0.2-0.4,0.3-0.8,0.3-1.2c0-0.3-0.1-0.5-0.1-0.8
			C10.2,19.4,9.9,19.8,9.9,20.2z M7.8,17.2c0,0.4,0.3,0.8,0.7,1c0.4,0.2,0.9,0,1.2-0.4c-0.5-0.4-1.1-0.6-1.7-0.6
			C7.9,17.2,7.9,17.2,7.8,17.2z"/>
	</g>
	<path id="_x3C_Zusammengesetzter_Pfad_x3E__62_" class="st0" d="M14.9,66l-2.9,0.5l1.8-2.3l-0.6-1l-3.5,2l0.4,0.6l2.7-1.5l0,0
		l-2.1,2.5l0.3,0.5l3.2-0.5l0,0l-2.7,1.5L12,69l3.5-2L14.9,66z M12.3,62.9l0.6-0.3l-1.6-2.8l-0.6,0.3l0.6,1.1l-2.9,1.7l0.4,0.6
		l2.9-1.7L12.3,62.9z"/>
</g>
</svg>
